<?xml version="1.0" encoding="utf-8"?>
<!-- License: PD. Made by mono-company: https://github.com/mono-company/mono-icons -->
<svg width="28" height="28" viewBox="0 0 24 24" fill="none" xmlns="http://www.w3.org/2000/svg" xmlns:xlink="http://www.w3.org/1999/xlink" viewBox="0 0 1792 1792" style="-ms-transform: rotate(360deg); -webkit-transform: rotate(360deg); transform: rotate(360deg);"><path d="M2 6a2 2 0 0 1 2-2h16a2 2 0 0 1 2 2v12a2 2 0 0 1-2 2H4a2 2 0 0 1-2-2V6zm3.519 0L12 11.671 18.481 6H5.52zM20 7.329l-7.341 6.424a1 1 0 0 1-1.318 0L4 7.329V18h16V7.329z" fill="#D1CECC"/><rect x="0" y="0" width="1792" height="1792" fill="rgba(0, 0, 0, 0)" />
</svg>


<svg xmlns="http://www.w3.org/2000/svg" xmlns:xlink="http://www.w3.org/1999/xlink" width="28" height="28" preserveAspectRatio="xMidYMid meet" viewBox="0 0 1792 1792" style="-ms-transform: rotate(360deg); -webkit-transform: rotate(360deg); transform: rotate(360deg);"><path id="Telegram" d="M1189 1307l147-693q9-44-10.5-63t-51.5-7L410 877q-29 11-39.5 25t-2.5 26.5t32 19.5l221 69l513-323q21-14 32-6q7 5-4 15l-415 375l-16 228q23 0 45-22l108-104l224 165q64 36 81-38zm603-411q0 182-71 348t-191 286t-286 191t-348 71t-348-71t-286-191t-191-286T0 896t71-348t191-286T548 71T896 0t348 71t286 191t191 286t71 348z" fill="#D1CECC"/><rect x="0" y="0" width="1792" height="1792" fill="rgba(0, 0, 0, 0)" /></svg>